<svg width="64" height="64" viewBox="0 0 64 64" fill="none" xmlns="http://www.w3.org/2000/svg">
  <!-- Background -->
  <rect width="64" height="64" rx="12" fill="url(#grad)"/>
  
  <defs>
    <linearGradient id="grad" x1="0" y1="0" x2="64" y2="64">
      <stop offset="0%" stop-color="#3B82F6"/>
      <stop offset="100%" stop-color="#8B5CF6"/>
    </linearGradient>
  </defs>
  
  <!-- Simple Iron Icon -->
  <g transform="translate(12, 18)">
    <!-- Iron Body -->
    <path d="M 5 3 L 35 3 C 37 3 38 4 38 6 L 38 18 C 38 20 37 21 35 21 L 5 21 C 3 21 2 20 2 18 L 2 6 C 2 4 3 3 5 3 Z" 
          fill="white" 
          opacity="0.95"/>
    
    <!-- Handle -->
    <path d="M 12 3 Q 12 -2 20 -2 Q 28 -2 28 3" 
          fill="none" 
          stroke="white" 
          stroke-width="2" 
          stroke-linecap="round"
          opacity="0.95"/>
    
    <!-- Steam Holes -->
    <circle cx="12" cy="12" r="1.5" fill="#3B82F6"/>
    <circle cx="20" cy="12" r="1.5" fill="#3B82F6"/>
    <circle cx="28" cy="12" r="1.5" fill="#3B82F6"/>
  </g>
</svg>
